<?xml version="1.0" encoding="utf-8"?>
<!-- Generator: Adobe Illustrator 21.1.0, SVG Export Plug-In . SVG Version: 6.00 Build 0)  -->
<!DOCTYPE svg PUBLIC "-//W3C//DTD SVG 1.1//EN" "http://www.w3.org/Graphics/SVG/1.1/DTD/svg11.dtd">
<svg version="1.1" id="Calque_1" xmlns="http://www.w3.org/2000/svg" xmlns:xlink="http://www.w3.org/1999/xlink" x="0px" y="0px"
	 viewBox="0 0 292.5 292" style="enable-background:new 0 0 292.5 292;" xml:space="preserve">
<style type="text/css">
	.st0{fill:#FFFFFF;}
	.st1{fill:none;}
	.st2{fill:#FFFFFF;}
</style>
<path class="st0" d="M123.9,106.8"/>
<rect x="74.1" y="71.4" class="st1" width="146.4" height="146.4"/>
<path class="st2" d="M145.3,1C65.3,1,0.5,65.8,0.5,145.7s64.8,144.7,144.7,144.7S290,225.7,290,145.7S225.2,1,145.3,1z M60.1,87.1
	c0.1-0.1,0.2-0.1,0.3-0.2c0.1,0,0.1-0.1,0.2-0.1c0.1-0.1,0.2-0.1,0.3-0.2c0.1,0,0.1-0.1,0.2-0.1c0.1-0.1,0.2-0.1,0.3-0.1
	c0.1,0,0.1-0.1,0.2-0.1c0.1,0,0.2-0.1,0.3-0.1c0.1,0,0.1-0.1,0.2-0.1c0.1,0,0.2-0.1,0.3-0.1c0.1,0,0.1,0,0.2-0.1
	c0.1,0,0.2-0.1,0.3-0.1c0.1,0,0.1,0,0.2,0c0.1,0,0.2,0,0.4,0c0.1,0,0.1,0,0.2,0c0.2,0,0.4,0,0.6,0h164.6c0.2,0,0.4,0,0.6,0
	c0.1,0,0.1,0,0.2,0c0.1,0,0.2,0,0.4,0c0.1,0,0.1,0,0.2,0c0.1,0,0.2,0,0.3,0.1c0.1,0,0.1,0,0.2,0.1c0.1,0,0.2,0.1,0.3,0.1
	c0.1,0,0.1,0.1,0.2,0.1c0.1,0,0.2,0.1,0.3,0.1c0.1,0,0.1,0.1,0.2,0.1c0.1,0,0.2,0.1,0.3,0.1c0.1,0,0.1,0.1,0.2,0.1
	c0.1,0.1,0.2,0.1,0.3,0.2c0.1,0,0.1,0.1,0.2,0.1c0.1,0.1,0.2,0.1,0.3,0.2c0,0,0.1,0.1,0.1,0.1l-81.8,81.8c-1.3,1.3-2.9,2-4.7,2
	c-1.8,0-3.5-0.7-4.7-2L60,87.3C60,87.2,60.1,87.2,60.1,87.1z M57.5,103.7l42.2,42.2L57.5,188V103.7z M228.8,205.9H64.3
	c-1.6,0-3-0.6-4.2-1.5l49-49l23.2,23.2c3.8,3.8,8.8,5.9,14.2,5.9c5.3,0,10.4-2.1,14.2-5.9l23.3-23.3l49.1,49.1
	C231.9,205.3,230.4,205.9,228.8,205.9z M235.5,187.8l-42.1-42.1l42.1-42.1V187.8z"/>
</svg>
