<?xml version="1.0" encoding="utf-8"?>
<!-- Generator: Adobe Illustrator 21.1.0, SVG Export Plug-In . SVG Version: 6.00 Build 0)  -->
<!DOCTYPE svg PUBLIC "-//W3C//DTD SVG 1.1//EN" "http://www.w3.org/Graphics/SVG/1.1/DTD/svg11.dtd">
<svg version="1.1" id="Layer_1" xmlns="http://www.w3.org/2000/svg" xmlns:xlink="http://www.w3.org/1999/xlink" x="0px" y="0px"
	 viewBox="0 0 526 518.7" style="enable-background:new 0 0 526 518.7;" xml:space="preserve">
<style type="text/css">
	.st0{fill:#5EB7B7;}
	.st1{fill:#465151;}
	.st2{fill:#417F7E;}
	.st3{fill:#FFFFFF;}
	.st4{fill:#D8D8D8;}
	.st5{opacity:0.5;enable-background:new    ;}
</style>
<g>
	<path id="bg_54_" class="st0" d="M519,262.7c0,141.4-114.6,256-256,256S7,404.1,7,262.7s114.6-256,256-256S519,121.3,519,262.7z"/>
	<path class="st1" d="M40.5,389.2c44,77.3,127.1,129.5,222.5,129.5s178.5-52.2,222.6-129.5H40.5z"/>
	<path class="st2" d="M458.4,428c21.5-25.4,38.2-55.1,48.6-87.6c-1.4-0.1-2.9-0.2-4.4-0.2c-11.9,0-22.7,4.8-30.6,12.4
		c0-0.7,0.1-1.4,0.1-2.1c0-29.1-23.6-52.7-52.7-52.7c-9.7,0-18.8,2.7-26.6,7.2c-3.6-19.4-20.6-34.1-41.1-34.1
		c-18.4,0-34,11.9-39.6,28.5c-5.4-1.7-11.2-2.6-17.2-2.6c-27.4,0-50.3,19.3-56,45c33.2,33.6,71,62.6,112.4,86.2L458.4,428L458.4,428
		z"/>
	<path d="M152.9,117.9c-8,0.5-14.3,4.1-14.3,8.5v74.3c0,4.4,6.3,8.1,14.3,8.5V117.9z"/>
	<path d="M152.6,208c8.2-0.3,14.6-4,14.6-8.4v-73.2c0-4.5-6.4-8.1-14.6-8.4V208z"/>
	<path class="st3" d="M413,424.1c0,15.8,15.2,28.6-0.5,28.6H100.3c-15.8,0,0.7-12.8,0.7-28.6V277.8C101,262,237.3,130,253.1,130
		l75,52.8c15.8,0,85,79.2,85,94.9v146.4H413z"/>
	<g>
		<path class="st4" d="M180.2,79.1c-8.7,0-15.7,7.3-15.7,16.2h31.3C195.9,86.3,188.8,79.1,180.2,79.1z"/>
		<path class="st3" d="M157.2,87.6c-8.6,0-15.7,7.3-15.7,16.2h31.3C172.9,94.9,165.8,87.6,157.2,87.6z"/>
		<path class="st4" d="M222.7,35.8c-11,0-19.8,9.2-19.8,20.6h39.7C242.5,45,233.6,35.8,222.7,35.8z"/>
		<path class="st3" d="M193.5,46.6c-11,0-19.8,9.2-19.8,20.5h39.7C213.4,55.8,204.5,46.6,193.5,46.6z"/>
	</g>
	<path class="st3" d="M429.7,250.1l-160-148c-2.3-2.1-4.9-3.6-7.7-4.6l0,0c-0.6-0.2-1.3-0.4-1.9-0.6c-0.1,0-0.2,0-0.3-0.1
		c-0.6-0.1-1.1-0.2-1.7-0.3c-0.2,0-0.4,0-0.6-0.1c-0.5,0-0.9-0.1-1.4-0.1c-0.3,0-0.7,0-1,0s-0.7,0-1,0c-0.5,0-0.9,0.1-1.4,0.1
		c-0.2,0-0.4,0-0.6,0.1c-0.6,0.1-1.1,0.2-1.7,0.3c-0.1,0-0.2,0-0.3,0.1c-0.7,0.2-1.3,0.3-1.9,0.6l0,0c-2.8,0.9-5.4,2.4-7.7,4.6
		l-160,148c-8.7,8-9.2,21.6-1.2,30.3c8,8.7,21.6,9.2,30.3,1.2L255.1,147l145.5,134.6c8.7,8,22.2,7.5,30.3-1.2
		C438.9,271.7,438.4,258.2,429.7,250.1z"/>
	<rect x="210.3" y="306.1" width="85.5" height="146.3"/>
	<path class="st5" d="M413.7,264.6l-142.9-132c-2.3-2.1-4.9-3.6-7.7-4.6l0,0c-0.6-0.2-1.3-0.4-1.9-0.6c-0.1,0-0.2,0-0.3-0.1
		c-0.6-0.1-1.1-0.2-1.7-0.3c-0.2,0-0.4,0-0.6-0.1c-0.5-0.1-0.9-0.1-1.4-0.1c-0.3,0-0.7,0-1,0c-0.3,0-0.7,0-1,0
		c-0.5,0-0.9,0.1-1.4,0.1c-0.2,0-0.4,0-0.6,0.1c-0.6,0.1-1.1,0.2-1.7,0.3c-0.1,0-0.2,0-0.3,0.1c-0.7,0.2-1.3,0.3-1.9,0.6l0,0
		c-2.8,0.9-5.4,2.4-7.7,4.6L100.5,263.1V299c3.7-0.8,7.2-2.4,10.2-5.2l145.5-130.3l145.6,131.2c3.4,3.2,7.6,4.9,11.9,5.5
		L413.7,264.6L413.7,264.6z"/>
	<path d="M109.5,281.6L255,147l145.5,134.6c8.5,7.9,21.6,7.5,29.7-0.7c-0.2-0.2-0.4-0.5-0.6-0.7l-160-148c-2.3-2.1-4.9-3.6-7.7-4.6
		l0,0c-0.6-0.2-1.3-0.4-1.9-0.5c-0.1,0-0.2,0-0.3-0.1c-0.6-0.1-1.1-0.2-1.7-0.3c-0.2,0-0.4,0-0.6-0.1c-0.5-0.1-0.9-0.1-1.4-0.1
		c-0.3,0-0.7,0-1,0s-0.7,0-1,0c-0.5,0-0.9,0.1-1.4,0.1c-0.2,0-0.4,0-0.6,0.1c-0.6,0.1-1.1,0.2-1.7,0.3c-0.1,0-0.2,0-0.3,0.1
		c-0.7,0.2-1.3,0.3-1.9,0.5l0,0c-2.8,0.9-5.4,2.4-7.7,4.6l-160,148c-0.2,0.2-0.4,0.5-0.6,0.7C87.9,289,101,289.4,109.5,281.6z"/>
	<path class="st2" d="M210.8,442c-5.9,0-11.1,2.3-15,6.1c0-0.3,0.1-0.7,0.1-1c0-14.3-11.6-25.9-25.9-25.9c-4.8,0-9.2,1.3-13.1,3.6
		c-1.8-9.5-10.1-16.8-20.2-16.8c-9.1,0-16.7,5.9-19.5,14c-2.7-0.8-5.5-1.3-8.5-1.3c-13.5,0-24.8,9.5-27.5,22.1
		c16.3,16.5,34.9,30.8,55.3,42.4h74.4c11.9,0,21.6-9.7,21.6-21.6C232.4,451.7,222.8,442,210.8,442z"/>
</g>
</svg>
