<?xml version="1.0" encoding="utf-8"?>
<!-- Generator: Adobe Illustrator 21.1.0, SVG Export Plug-In . SVG Version: 6.00 Build 0)  -->
<!DOCTYPE svg PUBLIC "-//W3C//DTD SVG 1.1//EN" "http://www.w3.org/Graphics/SVG/1.1/DTD/svg11.dtd">
<svg version="1.1" id="Calque_1" xmlns="http://www.w3.org/2000/svg" xmlns:xlink="http://www.w3.org/1999/xlink" x="0px" y="0px"
	 viewBox="0 0 292.5 292" style="enable-background:new 0 0 292.5 292;" xml:space="preserve">
<style type="text/css">
	.st0{fill:#5DB7B7;}
	.st1{fill:#12385B;}
	.st2{fill:none;}
</style>
<path class="st0" d="M146,2C66.9,2,2.8,66.1,2.8,145.2S66.9,288.5,146,288.5s143.3-64.1,143.3-143.2S225.2,2,146,2z M220.3,200.4
	c0,4.8-2,9.4-5.6,12.7c-3.6,3.3-8.4,4.9-13.2,4.4c-16.5-1.5-32.5-5.9-47.4-13c-14.5-6.9-27.7-16.2-39.1-27.6
	c-11.4-11.4-20.7-24.6-27.6-39.1c-7.1-14.9-11.5-30.9-13-47.4c0-0.5-0.1-1-0.1-1.6c0-4.3,1.6-8.4,4.5-11.6c3.2-3.6,7.9-5.6,12.7-5.6
	h23c8.7,0,16.1,6.5,17,15.2c0.6,5.1,1.6,10.1,3.1,15c1.9,6.1,0.2,12.7-4.2,17.2l-9.3,9.3c9.8,17.9,24.7,32.8,42.6,42.6l9.3-9.3
	c4.5-4.5,11.1-6.1,17.2-4.2c4.9,1.5,9.9,2.5,15,3.1c8.7,1,15.2,8.3,15.2,17V200.4z"/>
<path class="st1" d="M123.9,106.8"/>
<rect x="74.1" y="71.4" class="st2" width="146.4" height="146.4"/>
</svg>
