<?xml version="1.0" encoding="utf-8"?>
<!-- Generator: Adobe Illustrator 21.1.0, SVG Export Plug-In . SVG Version: 6.00 Build 0)  -->
<!DOCTYPE svg PUBLIC "-//W3C//DTD SVG 1.1//EN" "http://www.w3.org/Graphics/SVG/1.1/DTD/svg11.dtd">
<svg version="1.1" id="Calque_1" xmlns="http://www.w3.org/2000/svg" xmlns:xlink="http://www.w3.org/1999/xlink" x="0px" y="0px"
	 viewBox="0 0 292.5 292" style="enable-background:new 0 0 292.5 292;" xml:space="preserve">
<style type="text/css">
	.st0{fill:#5EB7B7;}
	.st1{fill:#5EB7B7;stroke:#FFFFFF;stroke-width:12;stroke-miterlimit:10;}
	.st2{fill:#475252;}
	.st3{fill:#020203;}
	.st4{fill:#FFFFFF;}
	.st5{opacity:0.5;fill:#020203;enable-background:new    ;}
</style>
<path class="st0" d="M147.5,3.5C86.6,3.5,37,53.1,37,114c0,43.6,18.2,87.6,52.7,127.4c25.8,29.7,51.3,46.6,52.4,47.3
	c1.6,1.1,3.5,1.6,5.4,1.6c1.9,0,3.8-0.5,5.4-1.6c1.1-0.7,26.6-17.5,52.4-47.3c34.5-39.8,52.7-83.9,52.7-127.4
	C258.1,53.1,208.5,3.5,147.5,3.5z M147.5,157.9c-24.2,0-43.9-19.7-43.9-43.9c0-24.2,19.7-43.9,43.9-43.9c24.2,0,43.9,19.7,43.9,43.9
	C191.4,138.2,171.7,157.9,147.5,157.9z"/>
<g>
	<path id="bg_54_" class="st1" d="M237.9,117.1c0,50.2-40.7,90.9-90.9,90.9S56,167.3,56,117.1s40.7-90.9,90.9-90.9
		S237.9,66.9,237.9,117.1z"/>
	<path class="st2" d="M67.9,162c15.6,27.5,45.1,46,79,46s63.4-18.5,79.1-46H67.9z"/>
	<path class="st3" d="M107.8,65.6c-2.8,0.2-5.1,1.5-5.1,3v26.4c0,1.6,2.2,2.9,5.1,3V65.6z"/>
	<path class="st3" d="M107.7,97.6c2.9-0.1,5.2-1.4,5.2-3v-26c0-1.6-2.3-2.9-5.2-3V97.6z"/>
	<path class="st4" d="M200.2,174.4c0,5.6,5.4,10.2-0.2,10.2H89.1c-5.6,0,0.2-4.5,0.2-10.2v-52c0-5.6,48.4-52.5,54-52.5L170,88.7
		c5.6,0,30.2,28.1,30.2,33.7L200.2,174.4L200.2,174.4z"/>
	<path class="st4" d="M206.1,112.6L149.3,60c-0.8-0.7-1.7-1.3-2.7-1.6l0,0c-0.2-0.1-0.5-0.1-0.7-0.2c0,0-0.1,0-0.1,0
		c-0.2,0-0.4-0.1-0.6-0.1c-0.1,0-0.1,0-0.2,0c-0.2,0-0.3,0-0.5,0c-0.1,0-0.2,0-0.4,0s-0.2,0-0.4,0c-0.2,0-0.3,0-0.5,0
		c-0.1,0-0.1,0-0.2,0c-0.2,0-0.4,0.1-0.6,0.1c0,0-0.1,0-0.1,0c-0.2,0.1-0.5,0.1-0.7,0.2l0,0c-1,0.3-1.9,0.9-2.7,1.6l-56.8,52.6
		c-3.1,2.8-3.3,7.7-0.4,10.8c2.8,3.1,7.7,3.3,10.8,0.4L144.1,76l51.7,47.8c3.1,2.8,7.9,2.7,10.8-0.4
		C209.4,120.3,209.2,115.5,206.1,112.6z"/>
	<rect x="128.2" y="132.5" class="st3" width="30.4" height="52"/>
	<path class="st5" d="M200.5,117.7l-50.8-46.9c-0.8-0.7-1.7-1.3-2.7-1.6l0,0c-0.2-0.1-0.5-0.1-0.7-0.2c0,0-0.1,0-0.1,0
		c-0.2,0-0.4-0.1-0.6-0.1c-0.1,0-0.1,0-0.2,0c-0.2,0-0.3,0-0.5,0c-0.1,0-0.2,0-0.4,0s-0.2,0-0.4,0c-0.2,0-0.3,0-0.5,0
		c-0.1,0-0.1,0-0.2,0c-0.2,0-0.4,0.1-0.6,0.1c0,0-0.1,0-0.1,0c-0.2,0.1-0.5,0.1-0.7,0.2l0,0c-1,0.3-1.9,0.9-2.7,1.6l-50.1,46.4V130
		c1.3-0.3,2.6-0.9,3.6-1.8l51.7-46.3l51.7,46.6c1.2,1.1,2.7,1.7,4.2,2L200.5,117.7L200.5,117.7z"/>
	<path class="st3" d="M92.4,123.8L144.1,76l51.7,47.8c3,2.8,7.7,2.7,10.5-0.2c-0.1-0.1-0.1-0.2-0.2-0.2l-56.8-52.6
		c-0.8-0.7-1.7-1.3-2.7-1.6l0,0c-0.2-0.1-0.5-0.1-0.7-0.2c0,0-0.1,0-0.1,0c-0.2,0-0.4-0.1-0.6-0.1c-0.1,0-0.1,0-0.2,0
		c-0.2,0-0.3,0-0.5,0c-0.1,0-0.2,0-0.4,0s-0.2,0-0.4,0c-0.2,0-0.3,0-0.5,0c-0.1,0-0.1,0-0.2,0c-0.2,0-0.4,0.1-0.6,0.1
		c0,0-0.1,0-0.1,0c-0.2,0.1-0.5,0.1-0.7,0.2l0,0c-1,0.3-1.9,0.9-2.7,1.6l-56.8,52.6c-0.1,0.1-0.1,0.2-0.2,0.2
		C84.7,126.4,89.4,126.6,92.4,123.8z"/>
</g>
</svg>
